<svg xmlns="http://www.w3.org/2000/svg" viewBox="0 0 64 64">
  <defs><linearGradient id="g" x1="8" y1="6" x2="56" y2="58"><stop stop-color="#ffcc62"/><stop offset="1" stop-color="#ff4f5f"/></linearGradient></defs>
  <circle cx="32" cy="32" r="29" fill="rgba(7,16,35,.72)" stroke="url(#g)" stroke-width="3"/>
  <path d="M34 6c3 10-4 14 5 23 3-5 4-9 3-14 9 7 14 15 14 25a23 23 0 0 1-46 0c0-13 9-20 24-34Zm-2 29c-6 5-8 9-8 14a8 8 0 0 0 16 0c0-5-3-9-8-14Z" fill="url(#g)" stroke="rgba(255,255,255,.82)" stroke-width="1.4" stroke-linejoin="round" stroke-linecap="round"/>
</svg>